#N canvas 244 353 649 515 10;
#X text 10 491 (c) Antoine Rousseau 2001;
#X text 85 3 gamme: a musical scale selector.;
#X obj 113 187 gamme 90 40 1 0 0 0 1 0 0 1 0 0 0 0;
#X floatatom 51 244 6 0 0 0 - - -, f 6;
#X floatatom 134 71 4 0 0 0 - - -, f 4;
#X floatatom 33 78 4 0 0 0 - - -, f 4;
#X floatatom 154 244 4 0 0 0 - - -, f 4;
#X msg 276 286 set \$1 \$2;
#X obj 276 318 gamme 90 40 1 0 0 0 1 0 0 1 0 0 0 0;
#X msg 406 141 getall;
#X floatatom 318 366 4 0 0 0 - - -, f 4;
#X floatatom 282 72 6 0 0 0 - - -, f 6;
#X msg 282 138 round \$1 \$2;
#X obj 282 116 pack f f;
#X floatatom 363 71 4 0 200 0 - - -, f 4;
#X obj 354 285 print changed;
#X obj 134 119 pack f f;
#X floatatom 190 71 4 0 0 0 - - -, f 4;
#X obj 156 99 t b f;
#X msg 134 141 get \$1 \$2;
#X text 126 53 octave;
#X text 188 53 note;
#X text 271 56 semitone;
#X text 344 55 rounding strength;
#X obj 303 93 t b f;
#X text 19 59 semitone;
#X text 152 33 ARPEGE;
#X text 28 39 FILTER;
#X text 324 36 ROUNDING;
#X text 51 263 Result;
#X text 139 261 Number of;
#X text 127 273 selected notes;
#X text 357 269 in the key set.;
#X text 363 256 Last change;
#X text 376 122 get all the key set.;
#N canvas 519 93 463 732 audio 1;
#X obj 59 109 gamme 90 40 1 0 0 0 1 0 0 1 0 0 0 0;
#X obj 85 639 *~;
#X obj 86 592 mtof;
#X obj 86 615 osc~;
#N canvas 390 103 600 400 env 0;
#X obj 19 122 inlet;
#X obj 105 121 inlet;
#X msg 19 143 bang;
#X obj 89 280 line~;
#X obj 114 329 outlet~;
#X obj 114 307 *~;
#X obj 130 280 +~ 1;
#X obj 130 258 *~ 0.6;
#X obj 130 237 osc~ 12;
#X msg 89 228 0 \$1;
#X obj 89 206 200;
#X obj 48 206 0.2;
#X obj 64 121 inlet;
#X text 18 101 trig;
#X text 62 101 vol;
#X text 103 102 sustain;
#X text 133 219 lfo...;
#X msg 48 228 \$1 2;
#X obj 89 183 delay 2;
#X connect 0 0 2 0;
#X connect 1 0 10 1;
#X connect 2 0 11 0;
#X connect 2 0 18 0;
#X connect 3 0 5 0;
#X connect 5 0 4 0;
#X connect 6 0 5 1;
#X connect 7 0 6 0;
#X connect 8 0 7 0;
#X connect 9 0 3 0;
#X connect 10 0 9 0;
#X connect 11 0 17 0;
#X connect 12 0 11 1;
#X connect 17 0 3 0;
#X connect 18 0 10 0;
#X restore 126 614 pd env;
#X floatatom 63 272 5 0 0 0 - - -, f 5;
#X obj 85 673 dac~;
#X obj 63 224 metro 180;
#X obj 63 246 i;
#X obj 68 81 tgl 20 0 \$0-play empty play 0 -8 1 10 -262144 -1 -1 0
1;
#X obj 88 246 + 1;
#X obj 49 396 spigot;
#X obj 93 395 == 0;
#X obj 113 246 mod 16;
#X obj 136 397 spigot;
#X obj 181 397 == 1;
#X msg 136 419 get 4 \$1;
#X obj 233 389 spigot;
#X msg 233 454 round \$1 \$2;
#X obj 233 433 pack f f;
#X obj 278 389 == 2;
#X obj 49 416 + 60;
#X obj 233 411 + 60.05;
#X obj 160 114 hsl 50 10 1 500 0 1 \$0-sustain empty Sustain -2 -6
1 10 -262144 -1 -1 900 1;
#X obj 108 79 hsl 50 10 5 500 0 1 \$0-metroMs empty Metro(ms) -2 -6
1 10 -262144 -1 -1 1200 1;
#X obj 226 113 vsl 10 40 0 100 0 1 \$0-round empty Round 0 -8 1 10
-262144 -1 -1 2600 1;
#X obj 158 141 hsl 60 15 0 1 0 1 \$0-volume empty Volume -2 -6 1 10
-258699 -1 -1 3300 1;
#X obj 169 52 cnv 15 90 15 empty empty filter/arpeg/round 2 8 1 10
-233017 -1 0;
#X obj 282 56 inlet;
#X floatatom 105 91 5 0 0 0 - #0-step -, f 5;
#X obj 49 492 s \$0-2gamme;
#X obj 59 173 s \$0-gamme;
#X obj 13 28 r \$0-2gamme;
#X obj 86 530 r \$0-gamme;
#X obj 63 202 r \$0-play;
#X obj 123 201 r \$0-metroMs;
#X obj 142 553 r \$0-volume;
#X obj 142 574 pow 3;
#X obj 159 593 r \$0-sustain;
#X obj 169 68 hradio 30 1 0 3 \$0-mode empty empty 0 -8 0 10 -262144
-1 -1 2;
#X obj 93 306 r \$0-mode;
#X obj 284 411 r \$0-round;
#X obj 111 270 s \$0-step;
#X obj 49 374 r \$0-step;
#X obj 136 374 r \$0-step;
#X obj 233 367 r \$0-step;
#X obj 282 76 s \$0-2gamme;
#X connect 0 0 31 0;
#X connect 1 0 6 0;
#X connect 1 0 6 1;
#X connect 2 0 3 0;
#X connect 3 0 1 0;
#X connect 4 0 1 1;
#X connect 5 0 42 0;
#X connect 7 0 8 0;
#X connect 8 0 5 0;
#X connect 8 0 10 0;
#X connect 10 0 13 0;
#X connect 11 0 21 0;
#X connect 12 0 11 1;
#X connect 13 0 8 1;
#X connect 14 0 16 0;
#X connect 15 0 14 1;
#X connect 16 0 30 0;
#X connect 17 0 22 0;
#X connect 18 0 30 0;
#X connect 19 0 18 0;
#X connect 20 0 17 1;
#X connect 21 0 30 0;
#X connect 22 0 19 0;
#X connect 28 0 46 0;
#X connect 32 0 0 0;
#X connect 33 0 4 0;
#X connect 33 0 2 0;
#X connect 34 0 7 0;
#X connect 35 0 7 1;
#X connect 36 0 37 0;
#X connect 37 0 4 1;
#X connect 38 0 4 2;
#X connect 40 0 15 0;
#X connect 40 0 20 0;
#X connect 40 0 12 0;
#X connect 41 0 19 1;
#X connect 43 0 11 0;
#X connect 44 0 14 0;
#X connect 45 0 17 0;
#X coords 0 0 1 1 210 110 1 50 50;
#X restore 33 325 pd audio demo;
#X obj 295 213 print binary_out;
#X text 298 197 12bits=12notes;
#X obj 480 309 gamme 90 40 1 0 0 0 1 0 0 1 0 0 0 0;
#X obj 480 262 f;
#X obj 480 221 bng 15 250 50 0 empty empty empty 0 -6 0 8 -262144 -1
-1;
#X msg 480 283 setb \$1;
#X floatatom 559 375 5 0 0 0 - - -, f 5;
#X msg 530 236 0;
#X text 538 283 binary input;
#X msg 600 234 2741;
#X msg 562 235 145;
#X text 304 184 binary output:;
#X connect 2 0 3 0;
#X connect 2 1 6 0;
#X connect 2 2 7 0;
#X connect 2 2 15 0;
#X connect 2 3 36 0;
#X connect 2 3 39 1;
#X connect 4 0 16 0;
#X connect 5 0 2 0;
#X connect 7 0 8 0;
#X connect 7 0 35 0;
#X connect 8 1 10 0;
#X connect 9 0 2 0;
#X connect 11 0 13 0;
#X connect 12 0 2 0;
#X connect 13 0 12 0;
#X connect 14 0 24 0;
#X connect 16 0 19 0;
#X connect 17 0 18 0;
#X connect 18 0 16 0;
#X connect 18 1 16 1;
#X connect 19 0 2 0;
#X connect 24 0 13 0;
#X connect 24 1 13 1;
#X connect 38 3 42 0;
#X connect 39 0 41 0;
#X connect 40 0 39 0;
#X connect 41 0 38 0;
#X connect 43 0 41 0;
#X connect 45 0 41 0;
#X connect 46 0 41 0;
