#N canvas 144 304 683 371 10;
#X obj 0 0 cnv 8 100 60 empty empty mknob 20 20 1 18 -262144 -1109
0;
#X floatatom 55 178 5 0 0 0 - - -;
#X floatatom 55 97 5 0 0 0 - - -;
#X text 75 242 Just an adaptation of musil's slider.;
#X obj 111 257 hsl 128 15 0 127 0 0 empty empty empty -2 -6 0 8 -262144
-1 -1 0 1;
#X text 75 257 See:;
#X msg 3 136 set \$1;
#X floatatom 183 170 5 0 0 0 - - -;
#X obj 183 151 r foo-snd;
#X floatatom 183 114 5 0 0 0 - - -;
#X obj 183 132 s foo-rcv;
#X obj 142 113 mknob 25 100 0 100 0 0 foo-snd foo-rcv empty -2 -6 0
8 -225271 -1 -1 3329 1;
#X obj 55 114 mknob 30 100 0 127 0 0 empty empty empty -2 -6 0 8 -241291
-24198 -1 9900 1;
#X obj 55 155 mknob 15 100 127 0 0 0 empty empty empty -2 -6 0 8 -258699
-24198 -1 0 1;
#X text 359 74 "mouse" parameter sets mouse;
#X text 362 84 excursion for full range.;
#X text 362 96 Set it with "size" parameter:;
#X obj 398 230 mknob 25 0 0 127 0 0 empty empty empty -2 -6 0 8 -262144
-1 -1 0 1;
#X msg 369 125 size 25 300;
#X msg 398 148 size 25 10;
#X text 452 125 low sensibility;
#X text 474 149 high sens;
#X text 494 171 default;
#X msg 413 170 size 25 100;
#X text 497 193 angular control;
#X msg 427 194 size 25 0;
#X text 518 216 full angular control;
#X msg 443 217 size 25 -1;
#N canvas 512 232 494 344 META 0;
#X text 12 25 LICENSE GPL v2;
#X text 12 105 AUTHOR Antoine Rousseau;
#X text 12 125 HELP_PATCH_AUTHORS Antoine Rousseau. "pd meta" information
added by Jonathan Wilkes for Pd version 0.42.;
#X text 12 45 DESCRIPTION round gui knob;
#X text 12 5 KEYWORDS control GUI;
#X text 12 65 INLET_0 float size;
#X text 12 85 OUTLET_0 float;
#X restore 614 329 pd META;
#X text 120 70 click properties to;
#X text 108 81 modify geometry \, colors \, etc.;
#X text 6 335 (c) moonix: Antoine Rousseau 2003-2018;
#X obj 374 43, f 6;
#X text 377 43 mknob;
#X text 16 43 To create a new knob \, just add an object (Ctrl+1) and
type:;
#X text 24 215 (0.01 pixels);
#X text 10 194 shift-click & drag;
#X text 16 204 for fine-tuning;
#X text 115 12 gui-round-knob:;
#X text 12 286 note: when selected \, mknob shows its inlet \, outlet
and a rectangular outline \, in order to help connecting. When edit
mode is switched off \, they disapear after the mkob is hovered by
the mouse or the knob value is changed., f 107;
#X connect 2 0 12 0;
#X connect 6 0 12 0;
#X connect 8 0 7 0;
#X connect 9 0 10 0;
#X connect 12 0 13 0;
#X connect 13 0 6 0;
#X connect 13 0 1 0;
#X connect 18 0 17 0;
#X connect 19 0 17 0;
#X connect 23 0 17 0;
#X connect 25 0 17 0;
#X connect 27 0 17 0;
